<?xml version="1.0" encoding="utf-8"?>
<svg xmlns="http://www.w3.org/2000/svg">
    <svg width="155" height="28" viewBox="0 0 155 28" fill="none" xmlns="http://www.w3.org/2000/svg">
        <path fill-rule="evenodd" clip-rule="evenodd" d="M10.4029 9.4868C12.3561 9.4868 13.7512 10.4076 14.6999 12.0678L18.8852 9.09616C17.0855 6.18037 14.2813 4.43647 10.3889 4.43647C4.94798 4.43647 0.399902 8.38465 0.399902 14.1465C0.399902 19.7549 4.86428 23.8565 10.3052 23.8565C14.5185 23.8565 17.2111 21.8754 18.8992 19.1968L14.8533 16.295C14.0162 17.7319 12.5653 18.8759 10.5285 18.8759C7.89168 18.8759 5.86876 16.9367 5.86876 14.1744C5.88271 11.4958 7.86378 9.4868 10.4029 9.4868ZM29.3486 24.1216C24.3122 23.4938 20.4198 19.1968 20.4198 13.993C20.4198 9.75187 23.0008 6.12456 26.67 4.57598L29.3486 0V7.84056C28.0511 7.98007 26.7537 8.44046 25.9305 9.44494C25.5399 9.91928 25.2888 10.4913 25.233 11.1051C25.1772 11.719 25.3167 12.3328 25.6376 12.863C26.3909 14.1604 27.8977 14.8022 29.3625 15.0812V17.6482C29.0975 17.6064 28.8324 17.5366 28.5813 17.4529C28.2325 17.3413 27.8837 17.1739 27.5768 16.9646L26.7676 16.3926C26.656 16.3229 26.5165 16.3368 26.4328 16.4484L25.3027 18.0668C25.233 18.1784 25.2469 18.3179 25.3585 18.4016L26.1677 18.9736C26.67 19.3224 27.242 19.6014 27.8279 19.7828C28.3301 19.9502 28.8463 20.0618 29.3625 20.1176V24.1216H29.3486ZM29.3486 10.3239C28.7347 10.4215 28.1488 10.6168 27.814 11.0214C27.7442 11.1051 27.6744 11.2307 27.6605 11.3423C27.6465 11.4539 27.6884 11.5655 27.7442 11.6632C28.0232 12.1515 28.6929 12.4444 29.3486 12.5979V10.3239ZM31.6924 3.85052C36.8264 4.38067 40.8443 8.71948 40.8443 14.007C40.8443 18.3458 38.1239 22.0568 34.3013 23.5356L31.6924 28V20.1315C32.9201 19.9641 34.1199 19.5037 34.9012 18.5551C35.2918 18.0807 35.5429 17.5087 35.5987 16.8949C35.6545 16.281 35.515 15.6672 35.1941 15.137C34.4826 13.9093 33.0875 13.2536 31.6924 12.9606V10.3936C31.8877 10.4355 32.0691 10.4913 32.2504 10.5471C32.5992 10.6587 32.948 10.8261 33.2549 11.0354L34.0641 11.6074C34.1757 11.6771 34.3152 11.6632 34.3989 11.5516L35.529 9.93323C35.5987 9.82162 35.5848 9.68211 35.4731 9.59841L34.664 9.02641C34.1617 8.67763 33.5897 8.3986 33.0038 8.21724C32.5713 8.07773 32.1249 7.98007 31.6784 7.91031V3.85052H31.6924ZM31.6924 17.6482C32.2225 17.5366 32.7108 17.3413 33.0038 16.9786C33.0735 16.8949 33.1433 16.7693 33.1573 16.6577C33.1712 16.5461 33.1294 16.4345 33.0735 16.3508C32.8224 15.9183 32.2644 15.6393 31.6924 15.4718V17.6482ZM149.636 23.5077H154.993V4.85501H149.636V11.9562H143.399V4.85501H138.042V23.4938H143.399V16.6996H149.636V23.5077ZM127.104 23.8565C132.113 23.8565 134.778 21.2755 134.778 17.8435C134.778 13.435 131.025 12.6119 128.109 11.9701C126.253 11.5655 124.761 11.2028 124.761 10.0309C124.761 9.37519 125.333 8.80319 126.644 8.80319C128.737 8.80319 129.072 10.003 129.127 10.9517H134.359C134.066 6.97558 131.332 4.50623 126.742 4.50623C122.361 4.50623 119.501 6.90583 119.501 10.575C119.501 15.2626 123.714 16.1276 126.658 16.8391C128.234 17.2157 129.406 17.5785 129.406 18.4155C129.406 19.2387 128.569 19.6712 127.258 19.6712C125.305 19.6712 124.677 18.6388 124.593 17.5785H119.292C119.543 21.6243 122.263 23.8565 127.104 23.8565ZM109.652 16.4484H105.759L107.712 10.1006L109.652 16.4484ZM111.828 23.5077H117.548L111.312 4.85501H104.448L98.1837 23.4938H103.597L104.434 20.7733H110.977L111.828 23.5077ZM88.2644 9.4868C90.2175 9.4868 91.6127 10.4076 92.5613 12.0678L96.7467 9.09616C94.947 6.18037 92.1428 4.43647 88.2504 4.43647C82.8095 4.43647 78.2614 8.38465 78.2614 14.1465C78.2614 19.7549 82.7258 23.8565 88.1667 23.8565C92.38 23.8565 95.0725 21.8754 96.7606 19.1968L92.7009 16.2531C91.8638 17.6901 90.4129 18.8341 88.376 18.8341C85.7392 18.8341 83.7163 16.8949 83.7163 14.1325C83.7442 11.4958 85.7253 9.4868 88.2644 9.4868ZM71.5509 23.5077V16.8112L77.9963 4.86896H72.3321L68.9002 11.8864L65.5519 4.86896H59.7342L66.1797 16.7414V23.5217H71.5509V23.5077ZM51.9913 18.7922C56.6929 18.7922 59.2878 15.6114 59.2878 11.6074C59.2878 7.93822 57.0277 4.85501 52.6191 4.85501H43.8857V23.4938H49.243V18.7922H51.9913ZM51.4193 9.59841C53.0237 9.59841 53.8189 10.4355 53.8189 11.8306C53.8189 13.2397 52.8982 14.0628 51.4193 14.0628H49.243V9.59841H51.4193Z" fill="url(#paint0_linear_59_249)"/>
        <defs>
            <linearGradient id="paint0_linear_59_249" x1="7.92499" y1="6.99999" x2="148.8" y2="28" gradientUnits="userSpaceOnUse">
                <stop stop-color="#1170FF"/>
                <stop offset="1" stop-color="#11F1FF"/>
            </linearGradient>
        </defs>
    </svg>
</svg>